<svg xmlns="http://www.w3.org/2000/svg" xmlns:xlink="http://www.w3.org/1999/xlink" version="1.1" width="256" height="256" viewBox="0 0 256 256" xml:space="preserve">
<g style="stroke: none; stroke-width: 0; stroke-dasharray: none; stroke-linecap: butt; stroke-linejoin: miter; stroke-miterlimit: 10; fill: rgb(255,142,49); fill-rule: nonzero; opacity: 1;" transform="translate(0 -2.842170943040401e-14) scale(2.81 2.81)">
	<path d="M 71.326 90 H 18.674 C 8.361 90 0 81.639 0 71.326 V 18.674 C 0 8.361 8.361 0 18.674 0 h 52.652 C 81.639 0 90 8.361 90 18.674 v 52.652 C 90 81.639 81.639 90 71.326 90 z" style="stroke: none; stroke-width: 1; stroke-dasharray: none; stroke-linecap: butt; stroke-linejoin: miter; stroke-miterlimit: 10; fill: rgb(255,142,49); fill-rule: nonzero; opacity: 1;" transform=" matrix(1 0 0 1 0 0) " stroke-linecap="round"/>
</g>
<g style="stroke: none; stroke-width: 0; stroke-dasharray: none; stroke-linecap: butt; stroke-linejoin: miter; stroke-miterlimit: 10; fill: none; fill-rule: nonzero; opacity: 1;" transform="translate(46.17984832069338 46.17984832069335) scale(1.82 1.82)">
	<path d="M 57.032 38.018 c 3.053 -3.45 4.854 -7.7 4.854 -12.295 V 9.358 c 0 -0.898 -0.64 -1.673 -1.524 -1.833 C 55.033 6.555 50.248 4.585 46.13 1.387 c -0.664 -0.516 -1.596 -0.516 -2.26 0 c -4.118 3.198 -8.903 5.168 -14.231 6.137 c -0.884 0.161 -1.524 0.935 -1.524 1.833 v 16.365 c 0 4.869 2.021 9.348 5.411 12.901 l 9.043 8.15 h 5.711 L 57.032 38.018 z" style="stroke: none; stroke-width: 1; stroke-dasharray: none; stroke-linecap: butt; stroke-linejoin: miter; stroke-miterlimit: 10; fill: rgb(225,239,250); fill-rule: nonzero; opacity: 1;" transform=" matrix(1 0 0 1 0 0) " stroke-linecap="round"/>
	<path d="M 5.994 39.484 v 30.445 h 10.974 l 8.506 -27.461 C 18.868 40.943 12.346 39.799 5.994 39.484 z" style="stroke: none; stroke-width: 1; stroke-dasharray: none; stroke-linecap: butt; stroke-linejoin: miter; stroke-miterlimit: 10; fill: rgb(225,239,250); fill-rule: nonzero; opacity: 1;" transform=" matrix(1 0 0 1 0 0) " stroke-linecap="round"/>
	<path d="M 84.006 39.484 v 30.445 H 73.033 l -8.506 -27.461 C 71.132 40.943 77.654 39.799 84.006 39.484 z" style="stroke: none; stroke-width: 1; stroke-dasharray: none; stroke-linecap: butt; stroke-linejoin: miter; stroke-miterlimit: 10; fill: rgb(225,239,250); fill-rule: nonzero; opacity: 1;" transform=" matrix(1 0 0 1 0 0) " stroke-linecap="round"/>
	<path d="M 49.683 58.673 c 6.035 4.674 11.551 10.108 16.562 16.28 c 1.387 1.404 1.373 3.688 -0.031 5.075 h 0 c -1.404 1.387 -3.906 1.168 -5.293 -0.236 l -0.22 -0.244 c 1.387 1.404 1.373 3.688 -0.031 5.075 h 0 c -1.404 1.387 -3.688 1.373 -5.075 -0.031 l -2.154 -2.181 c 1.387 1.404 1.373 3.688 -0.031 5.075 h 0 c -1.404 1.387 -3.688 1.373 -5.075 -0.031 l -0.714 -0.723 c -7.047 5.569 -18.426 -6.39 -29.76 -19.687 l 6.513 -21.026 h 11.342 L 49.683 58.673 z" style="stroke: none; stroke-width: 1; stroke-dasharray: none; stroke-linecap: butt; stroke-linejoin: miter; stroke-miterlimit: 10; fill: rgb(254,201,163); fill-rule: nonzero; opacity: 1;" transform=" matrix(1 0 0 1 0 0) " stroke-linecap="round"/>
	<path d="M 62.245 74.422 l 10.247 -6.238 l -6.666 -21.52 c -5.371 -2.457 -14.022 -4.052 -21.847 -3.751 c -7.506 0 -18.507 12.102 -14.566 16.015 c 2.709 2.147 5.69 3.496 11.087 -2.246 c 1.827 0.18 3.514 -0.086 4.971 -1.087 l 4.21 3.078 l -1.242 2.291 L 62.245 74.422 z" style="stroke: none; stroke-width: 1; stroke-dasharray: none; stroke-linecap: butt; stroke-linejoin: miter; stroke-miterlimit: 10; fill: rgb(254,201,163); fill-rule: nonzero; opacity: 1;" transform=" matrix(1 0 0 1 0 0) " stroke-linecap="round"/>
	<path d="M 43.595 89.622 c -7.621 0 -17.425 -10.624 -26.967 -21.82 c -0.358 -0.42 -0.308 -1.052 0.113 -1.409 c 0.418 -0.36 1.05 -0.31 1.41 0.112 C 28.679 78.858 40.465 91.6 47.047 86.399 c 0.436 -0.344 1.063 -0.269 1.404 0.164 c 0.343 0.434 0.27 1.062 -0.164 1.404 C 46.847 89.106 45.274 89.622 43.595 89.622 z" style="stroke: none; stroke-width: 1; stroke-dasharray: none; stroke-linecap: butt; stroke-linejoin: miter; stroke-miterlimit: 10; fill: rgb(0,0,0); fill-rule: nonzero; opacity: 1;" transform=" matrix(1 0 0 1 0 0) " stroke-linecap="round"/>
	<path d="M 50.992 89.999 c -0.01 0 -0.02 0 -0.03 0 c -1.245 -0.008 -2.409 -0.497 -3.28 -1.378 L 35.614 76.405 c -0.388 -0.394 -0.384 -1.026 0.009 -1.414 c 0.393 -0.39 1.026 -0.385 1.414 0.008 l 12.068 12.217 c 0.495 0.501 1.159 0.779 1.87 0.784 c 0.708 0.009 1.379 -0.266 1.879 -0.761 c 0.501 -0.494 0.779 -1.158 0.784 -1.869 c 0.004 -0.711 -0.267 -1.378 -0.762 -1.879 L 43 73.493 c -0.388 -0.394 -0.384 -1.026 0.009 -1.414 c 0.392 -0.39 1.025 -0.384 1.414 0.008 l 9.876 9.998 c 0.871 0.882 1.346 2.053 1.338 3.297 c -0.007 1.245 -0.496 2.41 -1.377 3.281 C 53.386 89.525 52.226 89.999 50.992 89.999 z" style="stroke: none; stroke-width: 1; stroke-dasharray: none; stroke-linecap: butt; stroke-linejoin: miter; stroke-miterlimit: 10; fill: rgb(0,0,0); fill-rule: nonzero; opacity: 1;" transform=" matrix(1 0 0 1 0 0) " stroke-linecap="round"/>
	<path d="M 58.378 87.087 c -0.01 0 -0.02 0 -0.029 -0.001 c -1.245 -0.007 -2.41 -0.496 -3.28 -1.378 l -2.191 -2.218 c -0.389 -0.394 -0.385 -1.026 0.008 -1.414 c 0.394 -0.39 1.026 -0.384 1.414 0.008 l 2.192 2.219 c 0.495 0.501 1.158 0.779 1.869 0.784 c 0.006 0 0.012 0 0.017 0 c 0.705 0 1.366 -0.271 1.862 -0.761 c 0.501 -0.495 0.779 -1.159 0.784 -1.87 s -0.266 -1.378 -0.761 -1.879 l -9.876 -9.998 c -0.389 -0.394 -0.385 -1.026 0.008 -1.414 c 0.394 -0.39 1.026 -0.384 1.414 0.008 l 9.877 9.998 c 0.871 0.882 1.346 2.053 1.338 3.298 s -0.497 2.409 -1.378 3.28 C 60.771 86.613 59.612 87.087 58.378 87.087 z" style="stroke: none; stroke-width: 1; stroke-dasharray: none; stroke-linecap: butt; stroke-linejoin: miter; stroke-miterlimit: 10; fill: rgb(0,0,0); fill-rule: nonzero; opacity: 1;" transform=" matrix(1 0 0 1 0 0) " stroke-linecap="round"/>
	<path d="M 30.975 63.394 c -1.585 0 -3.077 -0.561 -4.488 -1.678 c -0.204 -0.162 -0.337 -0.396 -0.371 -0.655 c -0.429 -3.29 1.62 -7.971 5.347 -12.216 c 3.982 -4.535 8.654 -7.242 12.499 -7.242 c 7.762 -0.297 16.88 1.27 22.643 3.907 c 0.502 0.229 0.723 0.823 0.493 1.325 c -0.229 0.501 -0.822 0.724 -1.325 0.493 C 60.269 44.811 51.512 43.317 44 43.603 c -3.267 0.001 -7.481 2.516 -11.035 6.562 c -3.147 3.585 -5.029 7.54 -4.901 10.236 c 2.02 1.44 5.067 2.103 10.633 -3.478 c 0.212 -0.213 0.508 -0.316 0.806 -0.289 c 1.408 0.141 3.855 -0.884 5.412 -1.952 c 0.456 -0.313 1.078 -0.197 1.39 0.258 c 0.312 0.456 0.197 1.078 -0.258 1.391 c -1.214 0.834 -3.976 2.307 -6.248 2.316 C 36.556 61.816 33.634 63.394 30.975 63.394 z" style="stroke: none; stroke-width: 1; stroke-dasharray: none; stroke-linecap: butt; stroke-linejoin: miter; stroke-miterlimit: 10; fill: rgb(0,0,0); fill-rule: nonzero; opacity: 1;" transform=" matrix(1 0 0 1 0 0) " stroke-linecap="round"/>
	<path d="M 64.121 82.316 c -0.099 0 -0.196 -0.003 -0.295 -0.009 c -1.266 -0.074 -2.483 -0.614 -3.34 -1.48 c -0.388 -0.394 -0.384 -1.026 0.009 -1.415 c 0.394 -0.388 1.026 -0.383 1.415 0.009 c 0.513 0.521 1.254 0.845 2.032 0.89 c 0.773 0.046 1.463 -0.188 1.937 -0.657 c 0.501 -0.495 0.779 -1.159 0.784 -1.87 c 0.005 -0.711 -0.266 -1.378 -0.761 -1.879 c -5.117 -6.295 -10.731 -11.813 -16.752 -16.475 c -0.437 -0.339 -0.517 -0.967 -0.179 -1.403 c 0.339 -0.437 0.966 -0.515 1.403 -0.179 c 6.142 4.757 11.866 10.384 17.015 16.723 c 0.806 0.81 1.28 1.98 1.272 3.226 s -0.497 2.409 -1.378 3.28 C 66.48 81.872 65.339 82.316 64.121 82.316 z" style="stroke: none; stroke-width: 1; stroke-dasharray: none; stroke-linecap: butt; stroke-linejoin: miter; stroke-miterlimit: 10; fill: rgb(0,0,0); fill-rule: nonzero; opacity: 1;" transform=" matrix(1 0 0 1 0 0) " stroke-linecap="round"/>
	<path d="M 29.057 46.762 h -5.042 c -0.552 0 -1 -0.448 -1 -1 c 0 -0.552 0.448 -1 1 -1 h 5.042 c 0.552 0 1 0.448 1 1 C 30.057 46.313 29.61 46.762 29.057 46.762 z" style="stroke: none; stroke-width: 1; stroke-dasharray: none; stroke-linecap: butt; stroke-linejoin: miter; stroke-miterlimit: 10; fill: rgb(0,0,0); fill-rule: nonzero; opacity: 1;" transform=" matrix(1 0 0 1 0 0) " stroke-linecap="round"/>
	<path d="M 68.961 71.757 c -0.338 0 -0.667 -0.171 -0.855 -0.479 c -0.287 -0.473 -0.138 -1.088 0.334 -1.375 l 4.013 -2.442 c 0.473 -0.286 1.088 -0.137 1.374 0.335 c 0.287 0.472 0.138 1.087 -0.334 1.374 l -4.013 2.442 C 69.317 71.71 69.137 71.757 68.961 71.757 z" style="stroke: none; stroke-width: 1; stroke-dasharray: none; stroke-linecap: butt; stroke-linejoin: miter; stroke-miterlimit: 10; fill: rgb(0,0,0); fill-rule: nonzero; opacity: 1;" transform=" matrix(1 0 0 1 0 0) " stroke-linecap="round"/>
	<path d="M 16.479 71.089 H 5.315 c -0.552 0 -1 -0.447 -1 -1 V 39.114 c 0 -0.274 0.112 -0.536 0.311 -0.725 c 0.199 -0.188 0.467 -0.29 0.739 -0.274 c 5.852 0.29 12.206 1.262 19.994 3.059 c 0.271 0.063 0.504 0.235 0.642 0.476 c 0.139 0.241 0.171 0.529 0.088 0.794 l -8.654 27.939 C 17.305 70.803 16.918 71.089 16.479 71.089 z M 6.315 69.089 h 9.427 l 8.117 -26.204 C 17.123 41.37 11.493 40.5 6.315 40.172 V 69.089 z" style="stroke: none; stroke-width: 1; stroke-dasharray: none; stroke-linecap: butt; stroke-linejoin: miter; stroke-miterlimit: 10; fill: rgb(0,0,0); fill-rule: nonzero; opacity: 1;" transform=" matrix(1 0 0 1 0 0) " stroke-linecap="round"/>
	<path d="M 84.685 71.089 H 73.52 c -0.438 0 -0.825 -0.285 -0.955 -0.704 l -8.653 -27.939 C 63.83 42.18 63.861 41.892 64 41.651 c 0.139 -0.241 0.371 -0.414 0.643 -0.476 c 7.787 -1.797 14.14 -2.769 19.993 -3.059 c 0.273 -0.014 0.541 0.085 0.739 0.274 c 0.198 0.189 0.311 0.451 0.311 0.725 v 30.974 C 85.685 70.641 85.238 71.089 84.685 71.089 z M 74.257 69.089 h 9.428 V 40.172 c -5.179 0.327 -10.807 1.198 -17.544 2.712 L 74.257 69.089 z" style="stroke: none; stroke-width: 1; stroke-dasharray: none; stroke-linecap: butt; stroke-linejoin: miter; stroke-miterlimit: 10; fill: rgb(0,0,0); fill-rule: nonzero; opacity: 1;" transform=" matrix(1 0 0 1 0 0) " stroke-linecap="round"/>
	<path d="M 33.526 39.624 c -0.264 0 -0.527 -0.104 -0.724 -0.31 c -3.721 -3.9 -5.687 -8.6 -5.687 -13.592 V 9.358 c 0 -1.385 0.986 -2.57 2.345 -2.817 c 5.324 -0.968 9.966 -2.968 13.797 -5.944 c 1.026 -0.797 2.461 -0.797 3.486 0 c 3.831 2.975 8.474 4.975 13.797 5.943 c 1.359 0.247 2.346 1.432 2.346 2.817 v 16.365 c 0 4.702 -1.766 9.183 -5.105 12.957 c -0.365 0.416 -0.998 0.452 -1.412 0.086 c -0.413 -0.366 -0.452 -0.998 -0.086 -1.412 c 3.012 -3.404 4.603 -7.426 4.603 -11.632 V 9.358 c 0 -0.418 -0.296 -0.775 -0.703 -0.849 c -5.643 -1.027 -10.578 -3.157 -14.666 -6.331 c -0.305 -0.237 -0.729 -0.237 -1.033 0 c -4.088 3.175 -9.023 5.306 -14.666 6.332 c -0.408 0.074 -0.703 0.431 -0.703 0.849 v 16.365 c 0 4.467 1.775 8.69 5.135 12.211 c 0.381 0.4 0.366 1.033 -0.033 1.414 C 34.022 39.532 33.774 39.624 33.526 39.624 z" style="stroke: none; stroke-width: 1; stroke-dasharray: none; stroke-linecap: butt; stroke-linejoin: miter; stroke-miterlimit: 10; fill: rgb(0,0,0); fill-rule: nonzero; opacity: 1;" transform=" matrix(1 0 0 1 0 0) " stroke-linecap="round"/>
	<path d="M 42.652 30.095 c -0.306 0 -0.596 -0.141 -0.785 -0.381 l -4.696 -5.957 c -0.342 -0.434 -0.268 -1.062 0.166 -1.404 c 0.435 -0.341 1.062 -0.268 1.404 0.166 l 3.911 4.961 l 8.606 -10.919 c 0.342 -0.433 0.971 -0.508 1.404 -0.166 c 0.434 0.342 0.508 0.97 0.166 1.404 l -9.391 11.915 C 43.248 29.954 42.959 30.095 42.652 30.095 z" style="stroke: none; stroke-width: 1; stroke-dasharray: none; stroke-linecap: butt; stroke-linejoin: miter; stroke-miterlimit: 10; fill: rgb(0,0,0); fill-rule: nonzero; opacity: 1;" transform=" matrix(1 0 0 1 0 0) " stroke-linecap="round"/>
</g>
</svg>